<svg height="654" width="720" xmlns="http://www.w3.org/2000/svg">
<rect height="654" fill="#555" width="720"></rect>
<text fill="#7f7" font-family="Courier New" font-size="12" xml:space="preserve">
<tspan x="10" y="26">21 megabytes installed</tspan>
<tspan x="10" y="42"></tspan>
<tspan x="10" y="58">node_modules</tspan>
<tspan x="10" y="74">├── UNMET PEER DEPENDENCY react@~15.4.1</tspan>
<tspan x="10" y="90">└─┬ react-native-web@0.0.81 </tspan>
<tspan x="10" y="106">  ├─┬ animated@0.2.0 </tspan>
<tspan x="10" y="122">  │ └── invariant@2.2.2 </tspan>
<tspan x="10" y="138">  ├── array-find-index@1.0.2 </tspan>
<tspan x="10" y="154">  ├─┬ babel-runtime@6.23.0 </tspan>
<tspan x="10" y="170">  │ ├── core-js@2.4.1 </tspan>
<tspan x="10" y="186">  │ └── regenerator-runtime@0.10.3 </tspan>
<tspan x="10" y="202">  ├─┬ debounce@1.0.0 </tspan>
<tspan x="10" y="218">  │ └── date-now@1.0.1 </tspan>
<tspan x="10" y="234">  ├─┬ deep-assign@2.0.0 </tspan>
<tspan x="10" y="250">  │ └── is-obj@1.0.1 </tspan>
<tspan x="10" y="266">  ├─┬ fbjs@0.8.12 </tspan>
<tspan x="10" y="282">  │ ├── core-js@1.2.7 </tspan>
<tspan x="10" y="298">  │ ├─┬ isomorphic-fetch@2.2.1 </tspan>
<tspan x="10" y="314">  │ │ ├─┬ node-fetch@1.6.3 </tspan>
<tspan x="10" y="330">  │ │ │ ├─┬ encoding@0.1.12 </tspan>
<tspan x="10" y="346">  │ │ │ │ └── iconv-lite@0.4.15 </tspan>
<tspan x="10" y="362">  │ │ │ └── is-stream@1.1.0 </tspan>
<tspan x="10" y="378">  │ │ └── whatwg-fetch@2.0.3 </tspan>
<tspan x="10" y="394">  │ ├─┬ loose-envify@1.3.1 </tspan>
<tspan x="10" y="410">  │ │ └── js-tokens@3.0.1 </tspan>
<tspan x="10" y="426">  │ ├── object-assign@4.1.1 </tspan>
<tspan x="10" y="442">  │ ├─┬ promise@7.1.1 </tspan>
<tspan x="10" y="458">  │ │ └── asap@2.0.5 </tspan>
<tspan x="10" y="474">  │ ├── setimmediate@1.0.5 </tspan>
<tspan x="10" y="490">  │ └── ua-parser-js@0.7.12 </tspan>
<tspan x="10" y="506">  ├── hyphenate-style-name@1.0.2 </tspan>
<tspan x="10" y="522">  ├─┬ inline-style-prefixer@3.0.2 </tspan>
<tspan x="10" y="538">  │ ├── bowser@1.6.1 </tspan>
<tspan x="10" y="554">  │ └── css-in-js-utils@1.0.3 </tspan>
<tspan x="10" y="570">  ├── normalize-css-color@1.0.2 </tspan>
<tspan x="10" y="586">  ├── UNMET PEER DEPENDENCY react@*</tspan>
<tspan x="10" y="602">  ├── react-dom@15.4.2 </tspan>
<tspan x="10" y="618">  ├── react-textarea-autosize@4.0.5 </tspan>
<tspan x="10" y="634">  └── react-timer-mixin@0.13.3</tspan>
</text>
</svg>
