<svg height="670" width="720" xmlns="http://www.w3.org/2000/svg">
<rect height="670" fill="#555" width="720"></rect>
<text fill="#7f7" font-family="Courier New" font-size="12" xml:space="preserve">
<tspan x="10" y="26">19 megabytes installed</tspan>
<tspan x="10" y="42"></tspan>
<tspan x="10" y="58">node_modules</tspan>
<tspan x="10" y="74">├── UNMET PEER DEPENDENCY react@15.4.x || 15.5.x</tspan>
<tspan x="10" y="90">├── UNMET PEER DEPENDENCY react-dom@15.4.x || 15.5.x</tspan>
<tspan x="10" y="106">└─┬ react-native-web@0.0.88 </tspan>
<tspan x="10" y="122">  ├─┬ animated@0.2.0 </tspan>
<tspan x="10" y="138">  │ └── invariant@2.2.2 </tspan>
<tspan x="10" y="154">  ├── array-find-index@1.0.2 </tspan>
<tspan x="10" y="170">  ├─┬ babel-runtime@6.23.0 </tspan>
<tspan x="10" y="186">  │ ├── core-js@2.4.1 </tspan>
<tspan x="10" y="202">  │ └── regenerator-runtime@0.10.3 </tspan>
<tspan x="10" y="218">  ├─┬ create-react-class@15.5.2 </tspan>
<tspan x="10" y="234">  │ └── object-assign@4.1.1 </tspan>
<tspan x="10" y="250">  ├── debounce@1.0.2 </tspan>
<tspan x="10" y="266">  ├─┬ deep-assign@2.0.0 </tspan>
<tspan x="10" y="282">  │ └── is-obj@1.0.1 </tspan>
<tspan x="10" y="298">  ├─┬ fbjs@0.8.12 </tspan>
<tspan x="10" y="314">  │ ├── core-js@1.2.7 </tspan>
<tspan x="10" y="330">  │ ├─┬ isomorphic-fetch@2.2.1 </tspan>
<tspan x="10" y="346">  │ │ ├─┬ node-fetch@1.6.3 </tspan>
<tspan x="10" y="362">  │ │ │ ├─┬ encoding@0.1.12 </tspan>
<tspan x="10" y="378">  │ │ │ │ └── iconv-lite@0.4.16 </tspan>
<tspan x="10" y="394">  │ │ │ └── is-stream@1.1.0 </tspan>
<tspan x="10" y="410">  │ │ └── whatwg-fetch@2.0.3 </tspan>
<tspan x="10" y="426">  │ ├─┬ loose-envify@1.3.1 </tspan>
<tspan x="10" y="442">  │ │ └── js-tokens@3.0.1 </tspan>
<tspan x="10" y="458">  │ ├─┬ promise@7.1.1 </tspan>
<tspan x="10" y="474">  │ │ └── asap@2.0.5 </tspan>
<tspan x="10" y="490">  │ ├── setimmediate@1.0.5 </tspan>
<tspan x="10" y="506">  │ └── ua-parser-js@0.7.12 </tspan>
<tspan x="10" y="522">  ├── hyphenate-style-name@1.0.2 </tspan>
<tspan x="10" y="538">  ├─┬ inline-style-prefixer@3.0.2 </tspan>
<tspan x="10" y="554">  │ ├── bowser@1.6.1 </tspan>
<tspan x="10" y="570">  │ └── css-in-js-utils@1.0.3 </tspan>
<tspan x="10" y="586">  ├── normalize-css-color@1.0.2 </tspan>
<tspan x="10" y="602">  ├── prop-types@15.5.8 </tspan>
<tspan x="10" y="618">  ├── UNMET PEER DEPENDENCY react@*</tspan>
<tspan x="10" y="634">  ├── UNMET PEER DEPENDENCY react-dom@*</tspan>
<tspan x="10" y="650">  └── react-timer-mixin@0.13.3</tspan>
</text>
</svg>
